<svg width="48.000000" height="48.000000" viewBox="0 0 48 48" fill="none" xmlns="http://www.w3.org/2000/svg" xmlns:xlink="http://www.w3.org/1999/xlink">
	<desc>
			Created with Pixso.
	</desc>
	<g clip-path="url(#clip4_50)">
		<path id="path" d="M38.4531 16.2669C37.8183 8.92099 31.648 3.13416 24.1422 3.13416C16.6363 3.13416 10.4686 8.92099 9.8363 16.2643L9.5672 16.2643C7.49011 16.2643 5.79901 17.9554 5.79901 20.0325L5.79901 41.0977C5.79901 43.1748 7.49011 44.8658 9.5672 44.8658L38.4328 44.8658C40.5099 44.8658 42.201 43.1748 42.201 41.0977L42.201 20.0325C42.2009 17.9606 40.52 16.277 38.4531 16.2669ZM24.1422 5.8765C30.1296 5.8765 35.0201 10.4395 35.6498 16.2644L12.6396 16.2644C13.2693 10.4395 18.1548 5.8765 24.1422 5.8765ZM39.6008 41.0977C39.6008 41.7299 39.0676 42.2657 38.4327 42.2657L9.5672 42.2657C8.93243 42.2657 8.39911 41.7299 8.39911 41.0977L8.39911 20.0325C8.39911 19.3875 8.92224 18.8645 9.5672 18.8645L11.0806 18.8645C11.1035 18.8645 11.1821 18.8645 11.205 18.8645L37.0819 18.8645C37.1048 18.8645 37.1835 18.8645 37.2064 18.8645L38.4327 18.8645C39.0777 18.8645 39.6008 19.3875 39.6008 20.0325L39.6008 41.0977Z" fill-rule="evenodd" fill="#B4B2B2"/>
		<path id="path" d="M24.0964 26.0758C22.6618 26.0758 21.4963 27.2413 21.4963 28.6759C21.4963 29.8008 22.2225 30.7377 23.2255 31.1009C23.2128 31.1593 23.19 31.2126 23.19 31.2736L23.19 33.8737C23.19 34.3739 23.5938 34.7802 24.0964 34.7802C24.5942 34.7802 25.0004 34.3739 25.0004 33.8737L25.0004 31.2736C25.0004 31.2126 24.9775 31.1593 24.965 31.1009C25.9678 30.7378 26.6967 29.8008 26.6967 28.6759C26.6966 27.2413 25.5286 26.0758 24.0964 26.0758Z" fill-rule="evenodd" fill="#B4B2B2"/>
	</g>
	<defs>
		<clipPath id="clip4_50">
			<rect id="password" width="48.000000" height="48.000000" fill="white"/>
		</clipPath>
	</defs>
</svg>
