<svg width="60.000000" height="60.000000" viewBox="0 0 60 60" fill="none" xmlns="http://www.w3.org/2000/svg" xmlns:xlink="http://www.w3.org/1999/xlink">
	<desc>
			Created with Pixso.
	</desc>
	<g clip-path="url(#clip4_605)">
		<path id="path" d="M51.5625 6.5625L8.4375 6.5625C7.40039 6.5625 6.5625 7.40039 6.5625 8.4375L6.5625 51.5625C6.5625 52.5996 7.40039 53.4375 8.4375 53.4375L51.5625 53.4375C52.5996 53.4375 53.4375 52.5996 53.4375 51.5625L53.4375 8.4375C53.4375 7.40039 52.5996 6.5625 51.5625 6.5625ZM42.334 39.6328C41.6602 39.7148 39.7031 36.5449 39.7031 36.5449C39.7031 38.3789 38.7539 40.7754 36.709 42.5098C37.6992 42.8145 39.9258 43.6348 39.3984 44.5254C38.9707 45.2461 32.0391 44.9883 30.0352 44.7598C28.0312 44.9824 21.0996 45.2461 20.6719 44.5254C20.1387 43.6348 22.3652 42.8145 23.3555 42.5098C21.3047 40.7812 20.3613 38.3848 20.3613 36.5449C20.3613 36.5449 18.4043 39.7148 17.7305 39.6328C17.4141 39.5918 17.0039 37.8984 18.2812 33.791C18.8848 31.8574 19.5703 30.2461 20.6367 27.5918C20.4551 20.7422 23.291 14.9941 30.0352 14.9941C36.709 14.9941 39.6035 20.625 39.4336 27.5918C40.4941 30.2402 41.1855 31.8574 41.7891 33.791C43.0605 37.8984 42.6445 39.5977 42.334 39.6328Z" fill-rule="nonzero" fill="#FF963D"/>
	</g>
	<defs>
		<clipPath id="clip4_605">
			<rect id="QQicon" width="60.000000" height="60.000000"  fill="white"/>
		</clipPath>
	</defs>
</svg>
