<svg width="36.000000" height="36.000000" viewBox="0 0 36 36" fill="none" xmlns="http://www.w3.org/2000/svg" xmlns:xlink="http://www.w3.org/1999/xlink">
	<desc>
			Created with Pixso.
	</desc>
	<g clip-path="url(#clip4_704)">
		<path id="path" d="M17.9476 33.8073C15.8207 33.8073 13.7574 33.3907 11.8143 32.5688C9.93796 31.7753 8.25293 30.639 6.80624 29.1924C5.35956 27.7457 4.22333 26.0606 3.42984 24.1843C2.60788 22.2412 2.19128 20.1779 2.19128 18.051C2.19128 15.924 2.60788 13.8607 3.42984 11.9176C4.22333 10.0413 5.35956 8.35629 6.80624 6.90961C8.25293 5.46292 9.93796 4.32669 11.8143 3.5332C13.7574 2.71124 15.8207 2.29465 17.9476 2.29465C20.0746 2.29465 22.1379 2.71161 24.081 3.5332C25.9573 4.32669 27.6423 5.46292 29.089 6.90961C30.5357 8.35629 31.6719 10.0413 32.4654 11.9176C33.2874 13.8607 33.7039 15.924 33.7039 18.051C33.7039 20.1776 33.2874 22.2412 32.4654 24.1843C31.6719 26.0606 30.5357 27.7457 29.089 29.1924C27.6423 30.639 25.9573 31.7753 24.081 32.5688C22.1379 33.3907 20.0742 33.8073 17.9476 33.8073ZM17.9476 3.64185C10.0023 3.64185 3.53848 10.1057 3.53848 18.051C3.53848 25.9843 10.0143 32.4601 17.9476 32.4601C25.8929 32.4601 32.3568 25.9963 32.3568 18.051C32.3568 10.118 25.881 3.64185 17.9476 3.64185Z" fill-rule="nonzero" fill="#FF963D"/>
		<path id="path" d="M17.8464 13.4993C17.1865 13.4993 16.6932 13.6825 16.3666 14.0481C16.1111 14.3343 15.8604 14.7828 15.7521 15.3292C15.6969 15.608 15.4487 15.8069 15.1643 15.8069L14.0836 15.8069C13.7292 15.8069 13.4532 15.5018 13.4856 15.1488C13.5861 14.0565 13.8741 13.1446 14.5491 12.4917C15.3556 11.7123 16.4549 11.3221 17.846 11.3221C19.2435 11.3221 20.353 11.6729 21.1746 12.3746C21.9962 13.0764 22.4072 14.0242 22.4072 15.2174C22.4072 15.853 22.2166 16.4514 21.8359 17.0121C21.4551 17.5728 20.8206 18.1508 19.9332 18.8167C19.5852 19.0807 19.344 19.3992 19.209 19.7019C19.1232 19.8946 19.0399 20.1255 18.9953 20.3948C18.9474 20.6835 18.6961 20.8941 18.4036 20.8941L17.3141 20.8941C16.971 20.8941 16.6989 20.6068 16.714 20.2641C16.7393 19.6879 16.837 19.1841 17.0638 18.7527C17.3697 18.1712 17.9005 17.6512 18.656 17.1236C19.016 16.8715 19.2705 16.5699 19.4207 16.2879C19.5704 16.006 19.6457 15.6491 19.6457 15.2174C19.6457 14.6897 19.4836 14.2699 19.1598 13.9581C18.8357 13.6522 18.398 13.4993 17.8464 13.4993Z" fill-rule="nonzero" fill="#FF963D"/>
		<path id="path" d="M17.0884 22.1987L18.5861 22.1987C18.9179 22.1987 19.1865 22.4677 19.1865 22.7992L19.1865 24.1706C19.1865 24.5025 18.9176 24.7711 18.5861 24.7711L17.0884 24.7711C16.7565 24.7711 16.4879 24.5021 16.4879 24.1706L16.4879 22.7992C16.4879 22.4677 16.7569 22.1987 17.0884 22.1987Z" fill-rule="nonzero" fill="#FF963D"/>
	</g>
	<defs>
		<clipPath id="clip4_704">
			<rect id="question" width="36.000000" height="36.000000" fill="white"/>
		</clipPath>
	</defs>
</svg>
