<svg width="48.000000" height="48.000000" viewBox="0 0 48 48" fill="none" xmlns="http://www.w3.org/2000/svg" xmlns:xlink="http://www.w3.org/1999/xlink">
	<desc>
			Created with Pixso.
	</desc>
	<g clip-path="url(#clip4_45)">
		<path id="path" d="M44.9411 44.9531L3.0589 44.9531C3.31342 37.2352 7.7417 30.5739 14.1591 27.1534C11.34 24.3989 9.93274 21.0508 9.9375 17.1094C9.9375 9.3429 16.2335 3.04688 24 3.04688C31.7665 3.04688 38.0625 9.3429 38.0625 17.1094C38.0673 21.0508 36.66 24.3989 33.8409 27.1534C40.2583 30.5739 44.6866 37.2352 44.9411 44.9531ZM35.25 17.1094C35.25 10.8962 30.2132 5.85938 24 5.85938C17.7868 5.85938 12.75 10.8962 12.75 17.1094C12.75 23.3226 17.7868 28.3594 24 28.3594C30.2132 28.3594 35.25 23.3226 35.25 17.1094ZM31.3809 29.0805C29.1181 30.4747 26.6578 31.1719 24 31.1719C21.3422 31.1719 18.8819 30.4747 16.6191 29.0805C11.3109 31.4478 7.34918 36.2898 6.20013 42.1406L41.7999 42.1406C40.6508 36.2898 36.6891 31.4478 31.3809 29.0805Z" fill-rule="evenodd" fill="#B4B2B2"/>
	</g>
	<defs>
		<clipPath id="clip4_45">
			<rect id="user" width="48.000000" height="48.000000" fill="white"/>
		</clipPath>
	</defs>
</svg>
